<svg width="751" height="526" viewBox="0 0 751 526" fill="none" xmlns="http://www.w3.org/2000/svg">
<g clip-path="url(#clip0_15914_15026)">
<path fill-rule="evenodd" clip-rule="evenodd" d="M693.143 158.466L692.906 158.308V158.545L693.143 158.466ZM690.773 156.334L691.326 156.097V155.781L690.773 156.334ZM700.568 150.172L700.489 149.066L700.331 148.434L700.568 150.172ZM666.049 142.036L665.496 142.273L660.993 143.616L659.414 144.169L657.597 144.722L656.965 144.959V145.196L657.202 149.303L657.439 153.095L657.676 156.57L658.071 156.807L659.493 156.412L665.891 154.517L666.049 154.912L677.424 150.567L677.503 150.725L678.53 150.33L682.163 148.908L685.639 153.095L686.113 152.7L686.35 151.515L686.271 153.411H687.061L687.298 154.359L688.009 155.702L691.721 151.199L694.802 152.226L695.513 150.646L700.568 147.96L698.436 143.774L698.988 146.46L696.382 148.434L693.459 148.671L687.614 142.431L685.007 138.481L687.614 135.717L684.928 135.559L683.822 132.952L683.743 132.794L679.241 137.691L669.288 141.009L666.049 142.036Z" fill="#CFD0CD" stroke="white" stroke-width="0.789918" stroke-linejoin="round"/>
<path fill-rule="evenodd" clip-rule="evenodd" d="M369.434 94.0084L371.013 99.6168L374.331 119.839L375.911 127.896L376.385 135.005L378.202 139.271L378.597 142.904L378.913 144.089L378.834 144.326L375.674 149.54L377.728 153.015L381.677 180.82L381.835 184.454L385.785 184.217L401.346 183.348L440.21 180.109L444.081 179.714V179.32L442.975 173.237L438.157 170.788L434.365 166.839L428.362 163.205L426.466 163.047L423.543 160.835L424.333 149.935L421.568 147.407L422.516 142.983L427.572 138.402L426.703 128.923L428.519 126.869L434.681 120.392L441.711 111.387L444.397 109.491L449.136 107.2L454.113 103.487L450.795 104.119L448.82 102.618L441.237 103.645L440.052 102.224L433.259 104.988L427.809 102.697L426.308 100.881L421.963 101.197L419.041 99.6958L419.988 98.5899L416.276 97.405H412.958L407.666 99.6958L406.639 98.1159L398.266 96.931L395.422 89.8218L395.106 87.689L391.472 86.6621L391.788 92.7445L382.151 93.4554L370.224 93.9294L369.434 94.0084Z" fill="#CFD0CD" stroke="white" stroke-width="0.789918" stroke-linejoin="round"/>
<path fill-rule="evenodd" clip-rule="evenodd" d="M293.837 93.2976L267.691 91.5598L248.654 89.743L229.696 87.5312L217.926 85.9514L199.126 83.0287L189.726 81.4488L168.714 77.4202L166.502 76.9463L163.105 93.0606L164.606 95.9833L165.791 100.486L165.08 101.118L166.581 105.225L168.635 106.963L174.48 116.758L175.033 118.417L177.403 118.259L174.638 131.214L173.532 131.53L172.032 135.874L179.852 136.427L180.484 140.061L184.907 150.883L185.697 151.515L188.778 157.834L189.568 157.202L196.124 157.123L204.418 157.992L206.472 155.306L208.921 159.73L209.395 159.967L209.474 159.493L210.58 151.752L237.595 155.069L259.16 157.123L270.534 158.071L290.835 159.256L291.862 159.335H292.099L292.178 158.229L292.415 152.778L292.731 145.59L292.81 143.773L292.968 140.614L294.232 115.81L295.259 96.5363L295.338 93.3766L293.837 93.2976Z" fill="#CFD0CD" stroke="white" stroke-width="0.789918" stroke-linejoin="round"/>
<path fill-rule="evenodd" clip-rule="evenodd" d="M367.776 94.0089L343.92 94.4828L327.253 94.4038L312.955 94.0879L296.209 93.4559L295.34 93.377L295.261 96.5366L294.234 115.811L292.97 140.614L292.812 143.774L295.893 143.932L330.729 144.88L362.878 144.643L376.228 144.248L378.914 144.09L378.598 142.905L378.203 139.271L376.386 135.006L375.912 127.896L374.332 119.839L371.014 99.6173L369.435 94.0089L367.776 94.0089Z" fill="#CFD0CD" stroke="white" stroke-width="0.789918" stroke-linejoin="round"/>
<path fill-rule="evenodd" clip-rule="evenodd" d="M166.426 76.9461L159.395 75.5243L157.105 74.9713L156.078 74.7344L146.915 115.968L147.31 119.365L146.994 122.919L147.152 123.709V123.788L147.231 125.289L149.916 128.212L146.046 137.928L137.831 148.671L137.594 150.646L139.726 155.701L132.222 186.824L131.906 188.483L134.118 188.957L156.473 193.38L165.399 195.039L167.69 195.434L169.901 195.829L181.276 197.646L201.656 200.726L203.947 201.042L204.263 198.436L204.974 193.301L207.659 172.763L209.081 162.573L209.397 159.967L208.923 159.73L206.475 155.306L204.421 157.992L196.127 157.123L189.57 157.202L188.78 157.834L185.7 151.514L184.91 150.883L180.486 140.061L179.854 136.427L172.034 135.874L173.535 131.53L174.641 131.214L177.406 118.259L175.036 118.417L174.483 116.758L168.637 106.963L166.584 105.225L165.083 101.118L165.794 100.486L164.609 95.9832L163.108 93.0605L166.505 76.9462L166.426 76.9461Z" fill="#CFD0CD" stroke="white" stroke-width="0.789918" stroke-linejoin="round"/>
<path fill-rule="evenodd" clip-rule="evenodd" d="M71.24 96.6156L71.319 95.2728L71.161 95.3517L71.24 96.6156ZM88.0653 89.4274L88.5392 88.6374L87.9863 88.5584L88.0653 89.4274ZM86.5644 88.0055L87.0384 86.4257L86.5644 86.2677V88.0055ZM92.3308 85.7147L92.2518 84.1349L90.9089 86.1887L92.3308 85.7147ZM92.4888 82.3971L92.7258 80.8172L92.5678 80.4223L92.4888 82.3971ZM92.7258 74.6559L92.6468 73.787L92.3308 73.708L92.7258 74.6559ZM95.2535 69.4424L94.5426 69.3634L93.1207 71.5752L95.2535 69.4424ZM93.2787 67.3096L93.6737 66.9937L93.7527 66.7567L93.2787 67.3096ZM92.8838 67.5466L92.6468 65.9668L91.9359 67.3096L92.8838 67.5466ZM92.4888 65.3348L91.7779 65.0189L92.3308 65.8088L92.4888 65.3348ZM94.8586 66.6777V65.6508L94.6216 66.0458L94.8586 66.6777ZM95.5695 65.6508L95.2535 65.4138H95.1745L95.5695 65.6508ZM91.0669 63.913L90.672 63.597L90.514 63.518L91.0669 63.913ZM93.9896 63.597L91.8569 64.15L92.4098 64.3079L93.9896 63.597ZM92.2518 63.439L91.8569 62.9651L91.7778 63.0441L92.2518 63.439ZM93.9107 62.4911H93.5947L93.9896 62.6491L93.9107 62.4911ZM78.4282 103.014L81.272 106.095L80.798 112.019L81.3509 113.52L85.6165 115.811L97.6233 116.917L98.0972 118.338L103.785 118.417L109.156 119.128L117.924 118.18L122.269 118.891L123.454 118.338L145.65 123.394L147.151 123.71L146.993 122.92L147.309 119.365L146.914 115.969L156.077 74.7349L154.813 74.4979L136.329 70.1534L120.215 66.0458L101.968 60.9903L96.5174 59.6475L97.7813 66.5198L96.5964 68.7315L94.4636 67.6256L96.5174 77.1837L94.3056 80.3433L93.2787 83.266V86.2677L88.6182 89.5064L86.6434 88.2425L84.7476 89.1904L88.2232 84.6879L87.3543 87.7686L89.3291 85.6358L90.909 85.9517L90.435 82.0022L91.4619 82.1601L93.5947 77.4206L92.8838 76.7097L90.119 80.2643L88.3022 80.3433L90.277 78.1316L92.4888 77.5786L91.6989 73.55L89.4871 72.9971L88.3812 71.1013L87.0384 71.8122L79.7711 68.6525L73.3728 63.676L71.6349 68.4945L71.477 70.5483L72.8198 74.182L71.9509 85.9517L71.319 87.7686L74.8736 88.0845L71.319 90.6123L73.2148 91.5602L71.7139 96.6156L71.003 92.666L69.6602 97.2476L71.477 99.4594L73.4518 99.3014L75.8215 100.723L77.0064 103.014L78.4282 103.014Z" fill="#CFD0CD" stroke="white" stroke-width="0.789918" stroke-linejoin="round"/>
<path fill-rule="evenodd" clip-rule="evenodd" d="M217.773 286.117L191.152 282.799L176.855 280.745L156.475 277.506L154.421 277.19V277.348L150.946 292.673L149.129 292.594L146.364 290.145L142.888 293.068L142.809 305.627L141.545 308.313V308.55V308.629L141.387 310.604L144.152 318.029L146.601 321.347L142.177 323.954L140.44 327.192L137.596 334.144L136.174 334.46L136.095 340.226L138.544 342.043L137.28 345.518L134.436 345.676L132.777 348.757L138.465 352.312L149.208 358.315L182.384 375.93L210.505 379.406H210.821L213.033 356.103L213.586 350.337L219.51 289.197L219.826 286.353L217.773 286.117Z" fill="#65665D" stroke="white" stroke-width="0.789918" stroke-linejoin="round"/>
<path fill-rule="evenodd" clip-rule="evenodd" d="M82.5327 329.957L82.8487 331.695V332.011L82.5327 329.957ZM70.9209 323.164L71.4739 324.349L71.7898 324.27L70.9209 323.164ZM84.7445 322.927L84.9815 324.981L86.4033 326.008L84.7445 322.927ZM75.1865 311.71L74.3176 311.473L75.0285 311.789L75.1865 311.71ZM66.4184 309.34L64.2856 310.604L64.8386 311.157L66.4184 309.34ZM62.3108 307.84L62.1528 308.472L62.8638 308.63L62.3108 307.84ZM69.2621 309.419L72.7377 311.394L73.3697 310.841L69.2621 309.419ZM50.778 240.223L50.699 239.986V240.302L50.778 240.223ZM96.3563 180.268L93.2756 179.478L59.4671 170.157L46.9074 166.365V166.681L46.1965 174.501L42.8788 183.743L37.3494 190.616L37.1914 194.091L39.8771 198.91L41.22 205.229L39.3242 210.364L39.6402 215.498L38.6923 217.631L41.9309 224.661L43.9847 227.347L43.8267 235.009L48.7242 239.67L51.5679 234.93L54.6486 237.379L55.8335 236.273L51.5679 237.063L51.4889 241.092L52.3578 246.147L49.988 243.856L48.6452 240.776L48.2502 245.041L49.3561 253.493L53.7797 258.944L50.857 262.735L51.3309 267.554L54.4906 272.451L60.02 287.618L61.7578 288.566L61.2049 299.072L62.0738 300.335L73.9226 304.601L77.5562 308.472L78.8201 310.999L82.2957 312.974L86.0873 313.685L87.6672 318.03L90.8268 319.53L95.5663 325.139L99.9899 332.485L99.6739 339.278L102.123 342.517L134.43 345.677L137.274 345.519L138.538 342.043L136.089 340.226L136.168 334.46L137.59 334.144L140.434 327.193L142.172 323.954L146.595 321.347L144.146 318.03L141.382 310.604L141.54 308.63V308.551L139.486 305.786L133.166 297.334L120.923 280.113L103.861 255.626L94.2235 242.276L84.9025 228.848L95.6454 183.269L96.3563 180.268Z" fill="#CFD0CD"/>
<path d="M42.3259 239.828L42.2469 239.907M82.5327 329.957L82.8487 331.695V332.011L82.5327 329.957ZM70.9209 323.164L71.4739 324.349L71.7898 324.27L70.9209 323.164ZM84.7445 322.927L84.9815 324.981L86.4033 326.008L84.7445 322.927ZM75.1865 311.71L74.3176 311.473L75.0285 311.789L75.1865 311.71ZM66.4184 309.34L64.2856 310.604L64.8385 311.157L66.4184 309.34ZM62.3108 307.84L62.1528 308.472L62.8638 308.63L62.3108 307.84ZM69.2621 309.419L72.7377 311.394L73.3697 310.841L69.2621 309.419ZM50.778 240.223L50.699 239.986V240.302L50.778 240.223ZM96.3563 180.268L93.2756 179.478L59.4671 170.157L46.9074 166.365V166.681L46.1965 174.501L42.8788 183.743L37.3494 190.616L37.1914 194.091L39.8771 198.91L41.22 205.229L39.3242 210.364L39.6402 215.498L38.6923 217.631L41.9309 224.661L43.9847 227.347L43.8267 235.009L48.7242 239.67L51.5679 234.93L54.6486 237.379L55.8335 236.273L51.5679 237.063L51.4889 241.092L52.3578 246.147L49.988 243.856L48.6452 240.776L48.2502 245.041L49.3561 253.493L53.7797 258.944L50.857 262.735L51.3309 267.554L54.4906 272.451L60.02 287.618L61.7578 288.566L61.2049 299.072L62.0738 300.335L73.9226 304.601L77.5562 308.472L78.8201 310.999L82.2957 312.974L86.0873 313.685L87.6672 318.03L90.8268 319.53L95.5663 325.139L99.9899 332.485L99.6739 339.278L102.123 342.517L134.43 345.677L137.274 345.519L138.538 342.043L136.089 340.226L136.168 334.46L137.59 334.144L140.434 327.193L142.172 323.954L146.595 321.347L144.146 318.03L141.382 310.604L141.54 308.63V308.551L139.486 305.786L133.166 297.334L120.923 280.113L103.861 255.626L94.2235 242.276L84.9025 228.848L95.6454 183.269L96.3563 180.268Z" stroke="white" stroke-width="0.789918" stroke-linejoin="round"/>
<path fill-rule="evenodd" clip-rule="evenodd" d="M313.351 241.881L313.667 226.399L309.875 226.241L290.601 225.53L288.705 225.451L287.125 225.372L263.665 223.871L248.024 222.607L228.513 220.712L226.618 220.475L226.381 222.528L222.115 263.683L220.614 278.06L219.982 284.3L219.824 286.354L222.273 286.591L262.085 290.066L279.621 291.172L297.078 291.962L299.606 292.041L301.186 292.12L304.503 292.199L306.083 292.278L311.06 292.436H312.324V290.856L313.193 249.07L313.272 244.409V242.908L313.351 241.881Z" fill="#65665D" stroke="white" stroke-width="0.789918" stroke-linejoin="round"/>
<path fill-rule="evenodd" clip-rule="evenodd" d="M154.814 274.663L163.029 223.555L167.216 197.962L167.69 195.434L165.399 195.039L156.473 193.38L134.118 188.957L131.906 188.483L129.695 188.009L118.557 185.56L98.5718 180.821L96.3601 180.268L95.6491 183.269L84.9062 228.848L94.2273 242.276L103.864 255.626L120.927 280.113L133.17 297.333L139.49 305.786L141.543 308.55V308.313L142.807 305.628L142.886 293.068L146.362 290.145L149.127 292.594L150.943 292.673L154.419 277.349V277.191L154.814 274.663Z" fill="#CFD0CD" stroke="white" stroke-width="0.789918" stroke-linejoin="round"/>
<path fill-rule="evenodd" clip-rule="evenodd" d="M299.37 298.202L299.449 296.149L299.528 294.095L299.607 292.041L297.079 291.962L279.622 291.172L262.086 290.066L222.274 286.59L219.825 286.354L219.509 289.197L213.585 350.337L213.032 356.103L210.82 379.406L211.136 379.485L222.037 380.512L223.064 374.982L225.039 373.403L247.157 375.377H247.315L245.34 371.507L255.372 372.218L280.412 373.64L296.053 374.35L298.738 300.256L299.291 300.335L299.37 298.202Z" fill="#CE2027" stroke="white" stroke-width="0.789918" stroke-linejoin="round"/>
<path fill-rule="evenodd" clip-rule="evenodd" d="M46.9136 166.365L59.4733 170.157L93.2818 179.478L96.3625 180.268L98.5743 180.82L118.559 185.56L129.697 188.009L131.909 188.483L132.225 186.824L139.729 155.701L137.596 150.646L137.833 148.671L146.048 137.928L149.919 128.212L147.233 125.289L147.154 123.788V123.709L145.653 123.393L123.457 118.338L122.272 118.891L117.927 118.18L109.159 119.128L103.788 118.417L98.1003 118.338L97.6264 116.916L85.6196 115.81L81.354 113.519L80.8011 112.019L81.2751 106.094L78.4313 103.013L78.1944 103.092L77.6414 103.487L73.6918 101.434L71.3221 102.145L69.7422 101.355L68.0834 108.148L66.9775 110.044L62.08 121.972L60.6582 128.528L59.7893 128.607L55.2078 139.508L52.1271 144.168L51.0212 144.958L48.1775 150.488L47.6245 156.333L45.8867 161.546L46.9136 166.286L46.9136 166.365ZM75.8247 101.513L75.5877 100.802L75.5087 101.355L75.8247 101.513Z" fill="#CFD0CD" stroke="white" stroke-width="0.789918" stroke-linejoin="round"/>
<path fill-rule="evenodd" clip-rule="evenodd" d="M201.655 200.726L181.275 197.645L169.9 195.829L167.689 195.434L167.215 197.961L163.028 223.555L154.813 274.662L154.418 277.19L156.472 277.506L176.852 280.745L191.149 282.799L217.769 286.116L219.823 286.353L219.981 284.299L220.613 278.059L222.114 263.683L226.38 222.528L226.617 220.474L225.037 220.316L204.894 217.867L201.813 217.472L203.788 202.069L203.946 201.042L201.655 200.726Z" fill="#CFD0CD" stroke="white" stroke-width="0.789918" stroke-linejoin="round"/>
<path fill-rule="evenodd" clip-rule="evenodd" d="M290.366 190.299L290.998 177.976L291.788 161.388L291.867 159.334L290.84 159.255L270.539 158.07L259.164 157.122L237.6 155.069L210.585 151.751L209.479 159.492L209.4 159.966L209.084 162.573L207.662 172.763L204.976 193.301L204.265 198.435L203.949 201.042L203.791 202.069L201.816 217.472L204.897 217.867L225.04 220.316L226.62 220.474L228.516 220.711L248.027 222.607L263.667 223.871L287.128 225.371L288.707 225.45L288.786 223.397L289.181 215.102L289.892 200.647L290.208 194.486L290.287 192.432L290.366 190.299Z" fill="#CFD0CD" stroke="white" stroke-width="0.789918" stroke-linejoin="round"/>
<path fill-rule="evenodd" clip-rule="evenodd" d="M476.785 300.888L468.253 302.152L471.729 296.623L470.228 293.542L440.132 296.465L414.697 298.518L410.984 298.755L411.458 300.967L414.539 316.924L414.618 320.478L415.487 341.964L415.566 345.519L415.803 345.598L416.988 346.862L421.727 346.704L422.201 353.655L422.359 355.63L424.808 355.393L432.312 354.84L462.092 352.075H462.25L462.171 350.337L462.961 349.784L461.539 347.098L464.541 334.46L463.356 333.038L467.859 328.061L467.543 323.796L470.86 318.266V318.187L470.702 318.029L473.546 315.423L472.756 312.263L474.968 308.787L474.494 305.549L476.864 300.967V300.888L476.785 300.888Z" fill="#CFD0CD" stroke="white" stroke-width="0.789918" stroke-linejoin="round"/>
<path fill-rule="evenodd" clip-rule="evenodd" d="M453.247 194.802L448.903 192.512L446.533 189.273L445.743 184.612L446.375 182.48L444.084 179.715L440.214 180.11L401.35 183.348L385.788 184.217L381.839 184.454L380.18 184.533L381.523 193.301L380.417 197.488L382.154 200.095V200.648L382.707 200.727L385.235 208.152L387.684 212.023L387.842 216.446L390.528 220.159L390.054 221.739L392.502 231.692V231.929L408.696 231.455L425.995 229.954L442.978 227.821L446.849 231.218L447.007 231.376L447.718 231.06L447.165 227.979L450.087 226.162L451.272 218.105L450.087 217.552L450.798 213.444L454.353 212.734L458.303 209.89L460.04 204.913L460.119 202.386L456.96 199.384L456.012 197.488L453.01 195.592L453.168 195.197L453.247 194.802Z" fill="#CFD0CD" stroke="white" stroke-width="0.789918" stroke-linejoin="round"/>
<path fill-rule="evenodd" clip-rule="evenodd" d="M410.432 288.408L408.457 254.994L404.903 252.94L404.587 251.36L401.743 248.833L404.508 245.436L403.402 243.461L401.348 243.54L399.452 242.197L398.662 241.565L395.977 241.723L366.829 242.829L353.479 243.145H326.938L316.274 242.987L313.272 242.908V244.409L313.193 249.07L312.324 290.856V292.436L315.721 292.515L334.047 292.752L376.94 292.12L407.509 290.698L410.511 290.461L410.432 288.408Z" fill="#CFD0CD" stroke="white" stroke-width="0.789918" stroke-linejoin="round"/>
<path fill-rule="evenodd" clip-rule="evenodd" d="M446.847 231.217L442.977 227.82L425.993 229.953L408.694 231.454L392.501 231.928L392.422 232.402L394.397 236.193L396.213 237.457L398.346 241.249L398.662 241.565L399.452 242.197L401.348 243.54L403.402 243.461L404.508 245.435L401.743 248.832L404.587 251.36L404.903 252.94L408.457 254.993L410.432 288.407L410.511 290.461L410.669 292.515L410.748 294.568L410.906 296.701L410.985 298.755L414.698 298.518L440.133 296.464L470.229 293.541L471.73 296.622L468.254 302.152L476.785 300.888H476.864V300.256L477.022 296.622L478.602 294.647L478.128 292.436L478.049 292.357L477.97 292.278L478.286 291.251L478.76 291.409L478.997 292.041L478.918 292.278V292.357V292.989L479.234 293.068L479.866 292.278V292.199L479.945 291.962L481.999 290.698L482.315 290.54L483.026 284.062L482.868 283.746L482.631 283.667L477.022 279.086L477.891 277.427L476.311 272.925L473.468 270.713L468.096 268.343L464.699 265.578L465.094 259.891L466.121 254.598L460.434 254.914L458.696 253.098L457.906 249.464L448.901 241.881L446.373 234.851L447.005 231.375L446.847 231.217Z" fill="#CFD0CD" stroke="white" stroke-width="0.789918" stroke-linejoin="round"/>
<path fill-rule="evenodd" clip-rule="evenodd" d="M380.65 200.49L378.201 198.041L369.591 195.513L366.826 195.434L362.64 196.619L357.663 193.46L342.102 193.618L319.431 193.381L292.653 192.512L290.283 192.433L290.204 194.486L289.888 200.648L289.177 215.103L288.782 223.397L288.703 225.451L290.599 225.53L309.873 226.241L313.665 226.399L313.349 241.882L313.27 242.908L316.271 242.987L326.935 243.145H353.476L366.826 242.829L395.974 241.724L398.66 241.566L398.344 241.25L396.211 237.458L394.394 236.194L392.419 232.403L392.498 231.929V231.692L390.05 221.739L390.524 220.159L387.838 216.446L387.68 212.023L385.231 208.152L382.703 200.727L382.15 200.648L380.65 200.49Z" fill="#CFD0CD" stroke="white" stroke-width="0.789918" stroke-linejoin="round"/>
<path fill-rule="evenodd" clip-rule="evenodd" d="M410.905 296.701L410.747 294.569L410.668 292.515L410.51 290.461L407.508 290.698L376.938 292.12L334.046 292.752L315.719 292.515L312.323 292.436H311.059L306.082 292.278L304.503 292.199L301.185 292.12L299.605 292.041L299.526 294.094L299.447 296.148L299.368 298.202L299.289 300.335H299.763L318.879 300.809L339.101 301.046L339.338 328.061L340.76 332.8L343.919 335.802L347.316 335.96L348.027 334.538L352.688 338.804L358.77 339.436L359.876 340.7L362.088 339.673L367.617 342.279V343.78L369.671 343.701L371.804 341.884L375.753 344.412L379.466 345.755L381.994 342.279L390.051 346.071L393.052 343.622L395.501 342.674L397.476 343.148L404.901 341.016L408.851 342.674L412.405 344.965L415.486 345.518H415.565L415.486 341.963L414.617 320.478L414.538 316.923L411.457 300.967L410.983 298.755L410.905 296.701Z" fill="#CFD0CD" stroke="white" stroke-width="0.789918" stroke-linejoin="round"/>
<path fill-rule="evenodd" clip-rule="evenodd" d="M376.228 144.247L362.879 144.642L330.729 144.879L295.894 143.931L292.813 143.773L292.734 145.59L292.418 152.779L292.181 158.229L292.102 159.335H291.865L291.786 161.389L290.996 177.977L290.364 190.3L290.285 192.432L292.655 192.511L319.433 193.38L342.104 193.617L357.665 193.459L362.642 196.619L366.828 195.434L369.593 195.513L378.203 198.041L380.652 200.49L382.153 200.648V200.095L380.415 197.488L381.521 193.301L380.178 184.533L381.837 184.454L381.679 180.821L377.729 153.016L375.675 149.54L378.835 144.326L378.914 144.089L376.228 144.247Z" fill="#CFD0CD" stroke="white" stroke-width="0.789918" stroke-linejoin="round"/>
<path fill-rule="evenodd" clip-rule="evenodd" d="M475.6 415.822L474.573 416.059L474.099 416.533L475.6 415.822ZM478.918 415.822L478.365 415.585L478.207 415.822H478.918ZM480.813 415.19H480.26L479.944 415.585L480.813 415.19ZM479.865 414.637L479.707 414.4L479.628 414.637H479.865ZM486.185 410.45L485.948 410.608H486.343L486.185 410.45ZM497.244 405.79L497.718 405.158L497.165 405.869L497.244 405.79ZM498.823 403.736L498.666 403.815V403.894L498.823 403.736ZM458.222 410.687L459.407 409.186L456.168 408.317L454.746 409.502L458.222 410.687ZM491.003 403.815L490.687 403.499L490.608 403.657L491.003 403.815ZM491.872 402.393L491.082 402.156L491.319 402.946L491.872 402.393ZM498.35 401.05V400.813V400.892V401.05ZM499.929 400.023L499.85 399.944L499.929 400.102V400.023ZM499.297 399.865L499.139 399.786L499.06 400.023L499.297 399.865ZM493.768 399.628L494.479 399.391V399.154L493.768 399.628ZM494.163 399.233L494.558 398.838L494.479 398.759L494.163 399.233ZM491.398 396.311L491.24 396.469H491.319L491.398 396.311ZM462.25 352.075H462.092L432.312 354.84L424.808 355.393L422.359 355.63L422.438 357.526L424.018 372.771L426.625 376.405L426.704 378.537L429.232 382.961L431.286 389.438L430.575 393.072L430.022 402.077L428.837 405H428.995L429.232 407.054L427.889 408.949L437.684 407.843L445.346 409.976L450.797 410.687L453.561 408.712L452.06 406.738L457.116 405.158L456.958 406.896L459.565 406.264L461.697 409.581L463.514 408.949L468.254 412.188L465.331 413.215L472.045 415.19H474.573L476.074 413.373L479.313 411.635L481.603 414.953L483.183 411.951L482.709 407.212L486.975 408.87L487.449 410.292L492.504 410.924L495.032 412.978L494.716 414.637L498.271 411.319L496.928 409.581L491.003 408.08L488.792 406.817L488.713 404.447L491.161 404.763L493.057 400.892L490.608 397.496L489.266 400.734L486.185 400.181L488.318 396.706L486.896 396.311L483.42 398.759L478.444 399.075L477.022 397.969L479.313 393.941L481.998 393.862L486.58 395.363L489.897 395.679L488.081 393.388L484.605 386.595L485.553 382.803L458.301 385.805L459.328 384.778L458.222 381.934L459.881 379.485L460.828 373.324L466.832 363.055L463.909 359.5L464.067 356.894L462.25 352.628L462.25 352.075Z" fill="#CFD0CD" stroke="white" stroke-width="0.789918" stroke-linejoin="round"/>
<path fill-rule="evenodd" clip-rule="evenodd" d="M381.992 470.878L378.2 456.581V459.266L381.992 470.878ZM381.123 445.759L378.437 450.814L378.121 452.473L381.123 445.759ZM383.256 442.046L385.783 438.729L383.967 439.834L383.256 442.046ZM392.182 433.989L386.257 437.07L387.916 436.754L392.182 433.989ZM392.972 432.883L394.63 431.54L393.999 431.698L392.972 432.883ZM299.287 300.335L298.734 300.256L296.049 374.35L280.408 373.639L255.368 372.217L245.336 371.507L247.311 375.377L247.39 375.456L255.921 383.987L260.818 389.754L267.296 394.572L271.877 402.945L273.615 411.713L277.328 414.162L280.25 417.401L284.437 418.902L290.519 422.772L293.284 423.799L297.076 420.008L298.26 415.979L300.235 412.108L306.397 409.66L308.766 410.844L315.639 411.397L321.879 415.268L326.145 416.058L324.96 418.27L327.408 419.85L329.699 422.614L330.173 425.537L331.674 427.512L335.15 435.885L338.625 438.808L341.311 443.231L344.708 446.707L346.209 447.181L347.472 456.186L351.185 458.24L351.343 461.083L352.291 460.846L358.768 468.745L362.007 469.456L366.114 471.905H372.434L377.015 474.433L382.466 473.248L380.017 470.957L377.805 464.322L376.936 458.556L375.673 456.66L376.225 452.789L374.567 452.631L372.355 448.998L374.883 451.683L377.805 450.656L379.385 446.47L376.225 442.204L380.965 442.757L383.177 439.361L382.861 438.176L384.836 435.569L384.362 437.86L386.573 436.122L385.704 433.041L388.548 434.542L392.182 432.488L388.627 428.776L390.839 429.645L394.947 429.881L400.318 428.697L406.321 424.668L409.955 421.666L410.508 419.455L412.72 417.164L411.535 413.372L411.772 411.002L415.721 409.265L415.405 413.451H417.775L415.168 415.663L425.674 410.134L427.412 410.055L428.518 404.999H428.834L430.019 402.076L430.572 393.071L431.283 389.438L429.229 382.96L426.701 378.537L426.622 376.404L424.015 372.77L422.436 357.525L422.357 355.629L422.199 353.654L421.725 346.703L416.985 346.861L415.8 345.597L415.563 345.518H415.484L412.404 344.965L408.849 342.674L404.899 341.016L397.474 343.148L395.499 342.674L393.051 343.622L390.049 346.071L381.992 342.279L379.464 345.755L375.751 344.412L371.802 341.885L369.669 343.701L367.615 343.78V342.28L362.086 339.673L359.874 340.7L358.768 339.436L352.686 338.804L348.025 334.538L347.314 335.96L343.918 335.802L340.758 332.801L339.336 328.061L339.099 301.046L318.877 300.809L299.761 300.335L299.287 300.335Z" fill="#65665D" stroke="white" stroke-width="0.789918" stroke-linejoin="round"/>
<path fill-rule="evenodd" clip-rule="evenodd" d="M677.423 150.566L666.048 154.911L665.891 154.516L659.492 156.412L658.07 156.807L658.228 157.597L661.23 169.208L662.178 170.393L660.124 172.921L661.546 174.264L666.127 169.84L668.576 166.444L669.05 167.392L680.583 162.257L680.82 162.02L680.741 160.124L680.267 158.466L677.818 151.593L677.502 150.724L677.423 150.566Z" fill="#CFD0CD" stroke="white" stroke-width="0.789918" stroke-linejoin="round"/>
<path fill-rule="evenodd" clip-rule="evenodd" d="M666.76 95.7471L665.733 97.0109L664.549 96.774L663.917 101.987V102.066L665.812 109.176L665.654 110.598L662.258 115.1L663.127 119.208V124.342L662.495 129.082L666.049 142.036L669.288 141.009L679.241 137.692L683.744 132.794V131.53L683.981 129.477L683.428 129.714L683.349 129.24L678.372 123.157L678.214 122.604L666.76 95.7471Z" fill="#CFD0CD" stroke="white" stroke-width="0.789918" stroke-linejoin="round"/>
<path fill-rule="evenodd" clip-rule="evenodd" d="M685.166 157.676L685.087 156.017L684.85 156.649L685.166 157.676ZM686.746 156.412L685.719 154.438L685.64 156.491L686.746 156.412ZM686.272 153.964L686.825 155.386L687.536 156.649L688.01 155.702L687.299 154.359L687.062 153.411H686.272V153.964ZM677.504 150.725L677.82 151.594L680.269 158.466L680.743 160.125L680.822 162.021L680.98 161.784L684.771 158.782L684.06 153.411L685.64 153.095L682.164 148.908L678.531 150.33L677.504 150.725Z" fill="#CFD0CD" stroke="white" stroke-width="0.789918" stroke-linejoin="round"/>
<path fill-rule="evenodd" clip-rule="evenodd" d="M666.047 142.035L662.493 129.081L663.125 124.341V119.207L662.256 115.099L665.652 110.597L665.81 109.175L663.915 102.065L662.888 102.46L658.543 104.04L654.278 105.699L644.483 109.254L643.93 109.412L647.484 117.706L648.669 125.526L652.856 132.082L656.805 145.037L656.963 144.958L657.595 144.721L659.412 144.168L660.992 143.615L665.494 142.272L666.047 142.035Z" fill="#CFD0CD" stroke="white" stroke-width="0.789918" stroke-linejoin="round"/>
<path fill-rule="evenodd" clip-rule="evenodd" d="M499.454 314.554L499.77 315.186L500.876 315.897L501.35 348.284L501.508 366.057L505.536 390.386L505.852 390.307L509.407 391.018L510.355 383.988L511.935 387.938L514.621 390.386L519.755 387.385L519.202 386.911L519.36 386.99L515.805 378.854L549.93 373.324L552.221 372.929V372.85L550.088 368.822L549.93 363.055L548.192 359.896L549.061 353.734L550.483 352.154L544.637 341.727L534.052 309.499L533.973 309.341L531.604 309.736L518.965 311.79L512.646 312.58L499.375 314.396L499.454 314.554Z" fill="#CFD0CD" stroke="white" stroke-width="0.789918" stroke-linejoin="round"/>
<path fill-rule="evenodd" clip-rule="evenodd" d="M610.437 469.535H610.279L610.358 469.614L610.437 469.535ZM609.726 469.456V469.535H609.805L609.726 469.456ZM598.272 470.641H598.193V470.72L598.272 470.641ZM620.706 465.665H620.627L620.706 465.823V465.665ZM622.839 465.112V464.954L622.681 465.191L622.839 465.112ZM622.049 464.954L621.733 464.638L621.654 464.717L622.049 464.954ZM621.812 465.586L620.864 464.401L621.417 465.428L621.812 465.586ZM629.316 460.925V461.241L629.474 461.083L629.316 460.925ZM630.422 460.135L630.659 459.74L630.343 460.056L630.422 460.135ZM630.659 459.345H630.58V459.424L630.659 459.345ZM629.948 457.923L629.869 457.844V458.002L629.948 457.923ZM630.501 456.028L630.343 456.107L630.58 456.186L630.501 456.028ZM630.817 456.028L630.659 455.87L630.738 456.107L630.817 456.028ZM630.264 455.87L630.185 455.791V455.949L630.264 455.87ZM633.187 455.317V455.238L633.029 455.554L633.187 455.317ZM629.869 455.633H629.711L629.869 455.712V455.633ZM631.528 454.685H631.291L631.212 454.764L631.528 454.685ZM625.524 454.606V454.448L625.445 454.606H625.524ZM626.235 454.369H625.998L626.235 454.843V454.369ZM624.339 454.448V453.974L623.945 454.053L624.339 454.448ZM623.234 453.658L623.629 454.053V453.895L623.234 453.658ZM634.845 454.132L633.424 454.764L633.897 454.843L634.845 454.132ZM623.787 453.421H623.313V453.579L623.787 453.421ZM636.267 449.471L636.346 449.076L636.425 448.049L636.267 449.471ZM636.346 445.048L636.03 444.258L635.872 444.574L636.346 445.048ZM618.099 447.023L617.941 447.26L618.336 447.339L618.099 447.023ZM616.598 446.312L615.887 446.549L616.44 446.628L616.598 446.312ZM615.018 446.47V446.233L614.939 446.312L615.018 446.47ZM613.36 446.391L612.886 446.707L613.518 447.023L613.36 446.391ZM615.571 446.47L615.492 446.233L615.097 446.154L615.571 446.47ZM605.223 438.728L604.75 438.965L605.697 439.281L605.223 438.728ZM603.328 436.201L602.696 435.253L602.933 435.964L603.328 436.201ZM605.776 437.781L604.671 435.253L603.881 435.016L605.776 437.781ZM602.617 434.621L602.38 433.989L602.222 433.594L602.617 434.621ZM596.06 425.853L594.639 424.826L595.192 425.379L596.06 425.853ZM631.607 420.56L625.84 410.923H625.524L631.607 420.56ZM591.716 405.157L591.479 405.078L591.716 405.236V405.157ZM591.242 404.604L591.163 404.683L591.242 404.762V404.604ZM590.689 403.814V403.735L590.61 403.814H590.689ZM591.005 403.498L591.242 403.656V403.498H591.005ZM591.479 403.182L591.163 403.261H591.242L591.479 403.182ZM590.926 403.103L590.689 402.866L590.768 402.945L590.926 403.103ZM590.373 402.234H590.215L590.452 402.313L590.373 402.234ZM590.926 401.286H590.61L590.531 401.365L590.926 401.286ZM591.242 401.444L590.847 401.049L591.005 401.128L591.242 401.444ZM588.24 398.048L588.082 397.969V398.048H588.24ZM584.844 398.048L584.607 397.732L584.686 398.127L584.844 398.048ZM556.091 395.441L558.46 393.624L555.854 395.362L556.091 395.441ZM560.83 391.649L561.067 391.412L560.119 391.807L560.83 391.649ZM530.813 386.357L522.203 389.122L526.943 387.779L530.813 386.357ZM552.22 372.928L549.929 373.323L515.805 378.853L519.359 386.989L519.596 387.068L518.727 390.306L521.255 389.201L524.02 386.752L528.759 386.594L534.21 384.619L537.922 385.172L537.053 386.515L543.847 388.806L549.692 391.649L551.035 394.809L555.38 393.861L565.649 385.488L569.44 385.646L584.923 397.337L588.082 396.705L591.4 401.128L592.032 408.159L591.005 412.582L591.479 414.794L594.244 420.323L592.98 415.979L596.534 415.9L596.85 419.059L594.955 423.957L601.511 432.962L603.96 433.041L601.906 430.276L604.434 430.592L605.934 429.644L605.302 434.7L608.699 437.386L610.99 443.547L614.071 445.443L618.02 446.47L623.471 453.421L626.314 454.922L622.523 455.159L624.26 457.134L630.501 455.08L633.582 453.342L636.425 443.389L635.003 427.907L634.687 426.327L627.104 413.688L620.627 404.525L616.993 397.021L620.074 399.627L620.706 399.154L622.049 405.71L625.524 410.686L622.128 404.051L622.286 400.891L612.096 388.49L609.647 384.619L606.408 378.063L604.197 372.533L602.459 370.558L602.064 368.031L601.985 367.952L596.534 367.636L594.402 369.295L593.217 375.377L592.111 372.533L554.827 377.194L552.141 373.007L552.22 372.928Z" fill="#CFD0CD"/>
<path d="M609.884 469.377V469.298M599.141 470.562V470.641M598.983 470.641V470.562M629.237 459.108L629.158 459.029M627.815 457.844L627.736 457.765M632.16 454.29H632.081M610.437 469.535H610.279L610.358 469.614L610.437 469.535ZM609.726 469.456V469.535H609.805L609.726 469.456ZM598.272 470.641H598.193V470.72L598.272 470.641ZM620.706 465.665H620.627L620.706 465.823V465.665ZM622.839 465.112V464.954L622.681 465.191L622.839 465.112ZM622.049 464.954L621.733 464.638L621.654 464.717L622.049 464.954ZM621.812 465.586L620.864 464.401L621.417 465.428L621.812 465.586ZM629.316 460.925V461.241L629.474 461.083L629.316 460.925ZM630.422 460.135L630.659 459.74L630.343 460.056L630.422 460.135ZM630.659 459.345H630.58V459.424L630.659 459.345ZM629.948 457.923L629.869 457.844V458.002L629.948 457.923ZM630.501 456.028L630.343 456.107L630.58 456.186L630.501 456.028ZM630.817 456.028L630.659 455.87L630.738 456.107L630.817 456.028ZM630.264 455.87L630.185 455.791V455.949L630.264 455.87ZM633.187 455.317V455.238L633.029 455.554L633.187 455.317ZM629.869 455.633H629.711L629.869 455.712V455.633ZM631.528 454.685H631.291L631.212 454.764L631.528 454.685ZM625.524 454.606V454.448L625.445 454.606H625.524ZM626.235 454.369H625.998L626.235 454.843V454.369ZM624.339 454.448V453.974L623.945 454.053L624.339 454.448ZM623.234 453.658L623.629 454.053V453.895L623.234 453.658ZM634.845 454.132L633.424 454.764L633.897 454.843L634.845 454.132ZM623.787 453.421H623.313V453.579L623.787 453.421ZM636.267 449.471L636.346 449.076L636.425 448.049L636.267 449.471ZM636.346 445.048L636.03 444.258L635.872 444.574L636.346 445.048ZM618.099 447.023L617.941 447.26L618.336 447.339L618.099 447.023ZM616.598 446.312L615.887 446.549L616.44 446.628L616.598 446.312ZM615.018 446.47V446.233L614.939 446.312L615.018 446.47ZM613.36 446.391L612.886 446.707L613.518 447.023L613.36 446.391ZM615.571 446.47L615.492 446.233L615.097 446.154L615.571 446.47ZM605.223 438.728L604.75 438.965L605.697 439.281L605.223 438.728ZM603.328 436.201L602.696 435.253L602.933 435.964L603.328 436.201ZM605.776 437.781L604.671 435.253L603.881 435.016L605.776 437.781ZM602.617 434.621L602.38 433.989L602.222 433.594L602.617 434.621ZM596.06 425.853L594.639 424.826L595.192 425.379L596.06 425.853ZM631.607 420.56L625.84 410.923H625.524L631.607 420.56ZM591.716 405.157L591.479 405.078L591.716 405.236V405.157ZM591.242 404.604L591.163 404.683L591.242 404.762V404.604ZM590.689 403.814V403.735L590.61 403.814H590.689ZM591.005 403.498L591.242 403.656V403.498H591.005ZM591.479 403.182L591.163 403.261H591.242L591.479 403.182ZM590.926 403.103L590.689 402.866L590.768 402.945L590.926 403.103ZM590.373 402.234H590.215L590.452 402.313L590.373 402.234ZM590.926 401.286H590.61L590.531 401.365L590.926 401.286ZM591.242 401.444L590.847 401.049L591.005 401.128L591.242 401.444ZM588.24 398.048L588.082 397.969V398.048H588.24ZM584.844 398.048L584.607 397.732L584.686 398.127L584.844 398.048ZM556.091 395.441L558.46 393.624L555.854 395.362L556.091 395.441ZM560.83 391.649L561.067 391.412L560.119 391.807L560.83 391.649ZM530.813 386.357L522.203 389.122L526.943 387.779L530.813 386.357ZM552.22 372.928L549.929 373.323L515.805 378.853L519.359 386.989L519.596 387.068L518.727 390.306L521.255 389.201L524.02 386.752L528.759 386.594L534.21 384.619L537.922 385.172L537.053 386.515L543.847 388.806L549.692 391.649L551.035 394.809L555.38 393.861L565.649 385.488L569.44 385.646L584.923 397.337L588.082 396.705L591.4 401.128L592.032 408.159L591.005 412.582L591.479 414.794L594.244 420.323L592.98 415.979L596.534 415.9L596.85 419.059L594.955 423.957L601.511 432.962L603.96 433.041L601.906 430.276L604.434 430.592L605.934 429.644L605.302 434.7L608.699 437.386L610.99 443.547L614.071 445.443L618.02 446.47L623.471 453.421L626.314 454.922L622.523 455.159L624.26 457.134L630.501 455.08L633.582 453.342L636.425 443.389L635.003 427.907L634.687 426.327L627.104 413.688L620.627 404.525L616.993 397.021L620.074 399.627L620.706 399.154L622.049 405.71L625.524 410.686L622.128 404.051L622.286 400.891L612.096 388.49L609.647 384.619L606.408 378.063L604.197 372.533L602.459 370.558L602.064 368.031L601.985 367.952L596.534 367.636L594.402 369.295L593.217 375.377L592.111 372.533L554.827 377.194L552.141 373.007L552.22 372.928Z" stroke="white" stroke-width="0.789918" stroke-linejoin="round"/>
<path fill-rule="evenodd" clip-rule="evenodd" d="M603.248 356.261L603.169 353.891L602.617 355.945L603.248 356.261ZM604.117 352.627L603.801 350.81L603.564 351.916L604.117 352.627ZM567.149 302.862L566.122 303.099L563.121 303.731L552.062 306.022L551.035 306.259L549.929 306.417L543.768 307.602L542.109 307.918L535.395 309.182L533.973 309.34L534.052 309.498L544.637 341.726L550.482 352.153L549.06 353.733L548.191 359.894L549.929 363.054L550.087 368.82L552.22 372.849V372.928L552.141 373.007L554.826 377.194L592.111 372.533L593.216 375.377L594.401 369.295L596.534 367.636L601.985 367.952L601.511 359.421L602.538 357.604L601.985 354.207L603.091 350.968L604.749 349.152L603.564 348.046L606.329 344.649H606.25L601.511 340.225L595.033 330.983L591.479 329.325L576.233 316.528L572.521 311.788L565.332 308.787L564.937 307.207L567.149 302.862Z" fill="#CFD0CD" stroke="white" stroke-width="0.789918" stroke-linejoin="round"/>
<path fill-rule="evenodd" clip-rule="evenodd" d="M498.189 394.257L497.794 394.336V394.415L498.189 394.257ZM505.535 393.309H504.429L505.456 393.388L505.535 393.309ZM496.372 394.099L496.056 394.414L496.135 394.494L496.372 394.099ZM503.797 393.467H500.795L503.639 393.546L503.797 393.467ZM470.857 318.187V318.266L467.54 323.796L467.856 328.061L463.353 333.038L464.538 334.46L461.536 347.098L462.958 349.784L462.168 350.337L462.247 352.075V352.628L464.064 356.893L463.906 359.5L466.829 363.055L460.825 373.324L459.878 379.485L458.219 381.934L459.325 384.778L458.298 385.804L485.55 382.803L484.602 386.594L488.078 393.388L489.894 395.678V395.599L492.817 392.282L498.979 390.939L504.666 391.571L505.535 390.465V390.386L501.506 366.056L501.348 348.283L500.874 315.897L499.768 315.186L499.452 314.554H499.295L495.345 315.107L488.394 316.055L472.595 318.029L470.857 318.187Z" fill="#CFD0CD" stroke="white" stroke-width="0.789918" stroke-linejoin="round"/>
<path fill-rule="evenodd" clip-rule="evenodd" d="M567.149 302.863L564.938 307.208L565.332 308.788L572.521 311.79L576.233 316.529L591.479 329.326L595.033 330.985L601.511 340.227L606.25 344.65L607.04 341.017L605.776 337.541L609.173 340.069L611.069 338.568L607.83 335.882L611.78 335.645L617.941 330.432L617.23 329.089L621.022 326.166L620.627 324.744L623.391 323.006L623.549 318.978L627.894 310.921L630.817 307.208L631.133 307.05L613.518 295.912L606.961 297.176L598.035 296.86L593.612 294.569L567.386 302.863H567.149Z" fill="#CFD0CD" stroke="white" stroke-width="0.789918" stroke-linejoin="round"/>
<path fill-rule="evenodd" clip-rule="evenodd" d="M453.164 195.197L453.006 195.592L456.008 197.488L456.956 199.384L460.116 202.385L460.037 204.913L458.299 209.89L454.349 212.733L450.795 213.444L450.084 217.552L451.269 218.105L450.084 226.162L447.161 227.979L447.714 231.059L447.003 231.375L446.371 234.851L448.899 241.881L457.904 249.465L458.694 253.098L460.432 254.915L466.119 254.599L465.092 259.892L464.697 265.579L468.094 268.344L473.465 270.713L476.309 272.925L477.889 277.428L477.02 279.087L482.628 283.668L482.865 283.747L482.391 283.273L483.971 279.561L490.054 281.219L491.554 279.482L490.37 276.006L495.346 273.083L494.003 271.187L495.188 268.502V268.265L494.872 268.186L494.951 261.155L496.689 259.892L499.691 252.861L499.059 249.781L497.084 246.068L498.19 241.881L492.66 202.938L491.87 202.069L489.817 197.409L488.158 195.671L487.447 191.09V190.932L476.783 192.432L470.385 193.222L453.164 195.197Z" fill="#CFD0CD" stroke="white" stroke-width="0.789918" stroke-linejoin="round"/>
<path fill-rule="evenodd" clip-rule="evenodd" d="M525.521 196.856L513.435 198.989L510.67 199.542L500.875 201.122L498.822 202.781L495.741 204.203L494.556 204.124L493.134 203.413L492.66 202.939L498.19 241.882L497.084 246.068L499.059 249.781L499.69 252.862L496.689 259.892L494.951 261.156L494.872 268.186L495.188 268.265L495.504 268.186L496.689 265.974H499.611L503.166 264.789L507.59 266.448L508.064 264.631L510.591 262.736L514.383 263.289L516.437 259.26L522.045 259.734L521.966 257.443L526.943 250.887L526.153 247.885L529.628 247.806L533.894 244.41L532.867 240.539L533.025 240.381L532.867 239.038L528.127 211.075L525.995 199.147L525.758 197.883L525.521 196.856Z" fill="#CFD0CD" stroke="white" stroke-width="0.789918" stroke-linejoin="round"/>
<path fill-rule="evenodd" clip-rule="evenodd" d="M478.996 292.042L478.759 291.41L478.285 291.252L477.969 292.279L478.048 292.358L478.917 292.279L478.996 292.042ZM533.026 240.381L532.868 240.539L533.895 244.41L529.629 247.807L526.154 247.886L526.944 250.887L521.967 257.444L522.046 259.734L516.438 259.26L514.384 263.289L510.592 262.736L508.065 264.632L507.591 266.449L503.167 264.79L499.612 265.975H496.69L495.505 268.186L495.189 268.265V268.502L494.004 271.188L495.347 273.084L490.371 276.007L491.555 279.482L490.054 281.22L483.972 279.561L482.392 283.274L482.866 283.748L483.024 284.064L482.313 290.541L481.997 290.699L479.944 291.963L479.865 292.2L482.155 291.884L498.112 289.751L497.322 286.592L500.007 286.513L532.157 282.247L554.749 278.455L555.065 278.218L555.618 277.586L561.542 274.427L566.124 268.423L566.756 266.37L569.757 264L573.549 259.181L574.102 258.391L573.865 258.312H571.89L569.362 256.891L564.86 251.44L563.28 245.911V245.753L563.122 245.595L559.804 243.699L558.303 241.171L555.302 244.094L553.406 244.568L551.036 243.62L548.982 245.2L544.717 243.304L543.611 243.778L539.582 240.302L537.529 239.275L533.658 239.749L533.026 240.381Z" fill="#CFD0CD" stroke="white" stroke-width="0.789918" stroke-linejoin="round"/>
<path fill-rule="evenodd" clip-rule="evenodd" d="M639.349 304.285L638.48 305.154L638.638 305.312L639.349 304.285ZM639.981 299.703L639.586 300.335L639.744 300.967L639.981 299.703ZM644.72 292.357L643.535 293.147L642.904 294.095L644.72 292.357ZM654.91 287.381L654.436 287.065L653.409 286.986L654.91 287.381ZM652.777 286.907H652.067L650.882 287.539L652.777 286.907ZM655.226 287.776L657.517 282.088L655.937 284.458L655.226 287.776ZM658.623 280.271L659.65 278.77H659.097L658.623 280.271ZM665.258 274.11L663.52 265.342L665.021 269.923L665.258 274.11ZM655.621 254.125L655.463 254.204L655.226 254.283H655.305L659.65 261.629L663.046 265.026L655.621 254.125ZM654.199 254.599L653.567 254.757L653.725 254.836H655.068L654.91 254.362L654.673 254.441H654.436V254.599L654.278 254.678L654.199 254.599ZM581.132 272.609L580.737 273.794L580.816 277.191L579.947 277.112L577.893 281.298L575.602 281.535L571.337 285.722L569.441 285.011L566.992 288.644L560.515 294.49L557.355 295.28L554.038 298.36L553.88 300.414L550.957 301.994L551.036 305.47V306.26L552.063 306.023L563.122 303.732L566.124 303.1L567.15 302.863H567.387L593.613 294.569L598.036 296.86L606.962 297.176L613.519 295.912L631.134 307.049L631.45 306.813L639.586 303.495L639.665 299.15L642.588 293.858L645.747 290.856L652.304 286.512L653.173 284.932L654.91 285.722L655.7 280.508L654.752 282.325L651.435 283.431L648.275 283.51L652.146 280.666L650.961 279.402L652.304 276.559L644.878 275.374L644.562 274.979L650.882 273.794L652.936 274.821L655.542 274.584L657.675 273.004L659.255 269.923L660.677 269.528L660.44 265.184L658.623 263.446L656.806 265.105L657.201 269.291L655.858 264.157L654.831 263.92L647.011 267.159L650.487 263.762L650.645 262.419L654.278 261.55L655.305 258.865L657.754 260.286L655.147 256.416L653.331 254.836L621.734 263.841L601.591 268.975L581.211 272.767L581.132 272.609Z" fill="#CFD0CD" stroke="white" stroke-width="0.789918" stroke-linejoin="round"/>
<path fill-rule="evenodd" clip-rule="evenodd" d="M580.736 202.07L578.761 193.539L578.366 191.801L576.155 182.085L573.311 183.902L567.229 188.562L563.279 193.381L560.198 193.855L554.511 197.093L551.351 195.198L541.793 194.092L536.738 195.356L531.761 196.54L526.548 197.646L525.758 197.883L525.995 199.147L528.128 211.075L532.867 239.038L533.025 240.381L533.657 239.749L537.528 239.275L539.581 240.302L543.61 243.778L544.716 243.304L548.981 245.199L551.035 243.62L553.405 244.568L555.301 244.094L558.302 241.171L559.803 243.699L563.121 245.594L563.279 245.752L566.676 244.094L567.86 241.487L566.913 238.801L569.598 234.694L571.573 234.378L571.336 230.902L574.575 226.478L575.128 227.11L578.05 224.899L580.578 221.107L580.973 203.808L581.131 203.729L580.736 202.07Z" fill="#CFD0CD" stroke="white" stroke-width="0.789918" stroke-linejoin="round"/>
<path fill-rule="evenodd" clip-rule="evenodd" d="M554.75 278.455L532.159 282.246L500.009 286.512L497.323 286.591L498.113 289.751L482.157 291.883L479.866 292.199V292.278L479.234 293.068L478.918 292.989V292.357V292.278L478.049 292.357L478.128 292.436L478.602 294.648L477.022 296.623L476.864 300.256V300.888V300.967L474.495 305.549L474.969 308.788L472.757 312.263L473.547 315.423L470.703 318.03L470.861 318.188L472.599 318.03L488.397 316.055L495.349 315.107L499.298 314.554H499.456L499.377 314.396L512.648 312.579L518.967 311.789L531.606 309.736L533.976 309.341L535.397 309.183L542.112 307.919L543.771 307.603L549.932 306.418L551.038 306.26V305.47L550.959 301.994L553.881 300.414L554.039 298.361L557.357 295.28L560.517 294.49L566.994 288.645L569.443 285.011L571.339 285.722L575.604 281.535L577.895 281.298L579.949 277.112L580.818 277.191L580.739 273.794L581.134 272.609L579.87 272.846L575.367 274.11L569.996 275.216L556.488 277.981L555.066 278.218L554.75 278.455Z" fill="#CFD0CD" stroke="white" stroke-width="0.789918" stroke-linejoin="round"/>
<path fill-rule="evenodd" clip-rule="evenodd" d="M654.438 254.441H654.675L654.912 254.362L654.754 253.967L654.438 254.441ZM651.752 245.594V245.989L652.147 245.752L651.752 245.594ZM652.7 243.777L652.542 244.804L652.305 245.199L652.7 243.777ZM653.411 241.723L653.49 241.249L653.332 241.723H653.411ZM653.885 239.591L654.122 239.038L653.727 240.459L653.885 239.591ZM653.964 238.406L654.28 236.668L653.885 237.063L653.964 238.406ZM655.386 230.585L655.544 229.875L655.465 230.033L655.386 230.585ZM655.07 228.769L654.043 229.164L652.463 229.875L651.91 230.585L652.147 230.665L650.252 242.434L650.962 244.33L652.068 239.433L654.122 233.034L655.07 228.848V228.769ZM656.65 228.137L656.413 228.216L656.334 228.532L655.939 230.98L656.255 230.112L656.65 228.137ZM574.103 258.391L573.55 259.181L569.759 263.999L566.757 266.369L566.125 268.423L561.544 274.426L555.619 277.586L555.066 278.218L556.488 277.981L569.996 275.216L575.367 274.11L579.87 272.846L581.134 272.609L581.213 272.767L601.593 268.976L621.736 263.841L653.332 254.836L653.095 254.441L653.016 254.204L653.569 254.757L654.201 254.599L654.122 254.52L653.569 251.834L653.964 251.913L655.228 254.283L655.465 254.204L655.623 254.125L655.307 253.493L652.068 248.517L648.04 249.227L646.223 250.728L644.485 249.149L638.561 247.174L634.453 247.016L642.431 246.305L646.855 249.306L648.119 247.332L644.564 242.829L647.092 242.987L645.749 239.354L642.589 239.512L635.085 233.429H634.137L644.722 238.643L644.011 235.009L644.722 233.824L639.351 231.77L634.69 231.454L632.399 229.401L630.504 230.585L629.793 225.135L630.583 225.293L630.425 220.869L630.267 220.711L630.109 220.79L629.951 220.711L629.556 220.395L629.319 220.158L626.791 219.053L624.184 217.157L620.551 216.209L620.314 216.13V216.209L619.84 219.527L612.493 216.367L612.651 220.948L608.623 228.611L606.174 231.296L604.594 235.957L599.776 234.298L597.406 245.041L595.51 248.675L595.194 253.414L593.772 255.705L588.48 257.285L584.135 260.681L582.082 260.997L580.107 262.735L575.13 260.918L574.261 258.47L574.103 258.391Z" fill="#CFD0CD"/>
<path d="M653.174 242.829L653.095 242.197M654.438 254.441H654.675L654.912 254.362L654.754 253.967L654.438 254.441ZM651.752 245.594V245.989L652.147 245.752L651.752 245.594ZM652.7 243.777L652.542 244.804L652.305 245.199L652.7 243.777ZM653.411 241.723L653.49 241.249L653.332 241.723H653.411ZM653.885 239.591L654.122 239.038L653.727 240.459L653.885 239.591ZM653.964 238.406L654.28 236.668L653.885 237.063L653.964 238.406ZM655.386 230.585L655.544 229.875L655.465 230.033L655.386 230.585ZM655.07 228.769L654.043 229.164L652.463 229.875L651.91 230.585L652.147 230.665L650.252 242.434L650.962 244.33L652.068 239.433L654.122 233.034L655.07 228.848V228.769ZM656.65 228.137L656.413 228.216L656.334 228.532L655.939 230.98L656.255 230.112L656.65 228.137ZM574.103 258.391L573.55 259.181L569.759 263.999L566.757 266.369L566.125 268.423L561.544 274.426L555.619 277.586L555.066 278.218L556.488 277.981L569.996 275.216L575.367 274.11L579.87 272.846L581.134 272.609L581.213 272.767L601.593 268.976L621.736 263.841L653.332 254.836L653.095 254.441L653.016 254.204L653.569 254.757L654.201 254.599L654.122 254.52L653.569 251.834L653.964 251.913L655.228 254.283L655.465 254.204L655.623 254.125L655.307 253.493L652.068 248.517L648.04 249.227L646.223 250.728L644.485 249.149L638.561 247.174L634.453 247.016L642.431 246.305L646.855 249.306L648.119 247.332L644.564 242.829L647.092 242.987L645.749 239.354L642.589 239.512L635.085 233.429H634.137L644.722 238.643L644.011 235.009L644.722 233.824L639.351 231.77L634.69 231.454L632.399 229.401L630.504 230.585L629.793 225.135L630.583 225.293L630.425 220.869L630.267 220.711L630.109 220.79L629.951 220.711L629.556 220.395L629.319 220.158L626.791 219.053L624.184 217.157L620.551 216.209L620.314 216.13V216.209L619.84 219.527L612.493 216.367L612.651 220.948L608.623 228.611L606.174 231.296L604.594 235.957L599.776 234.298L597.406 245.041L595.51 248.675L595.194 253.414L593.772 255.705L588.48 257.285L584.135 260.681L582.082 260.997L580.107 262.735L575.13 260.918L574.261 258.47L574.103 258.391Z" stroke="white" stroke-width="0.789918" stroke-linejoin="round"/>
<path fill-rule="evenodd" clip-rule="evenodd" d="M489.266 143.615L487.292 146.064L486.107 149.619L486.66 151.593L489.266 143.615ZM443.925 125.052L445.11 123.393L444.241 124.183L443.925 125.052ZM445.742 122.445L445.347 121.971L444.478 122.524L445.742 122.445ZM428.522 126.869L426.705 128.923L427.574 138.402L422.518 142.983L421.57 147.407L424.335 149.935L423.545 160.835L426.468 163.047L428.364 163.205L434.367 166.839L438.159 170.788L442.977 173.237L444.083 179.32V179.714L446.374 182.479L445.742 184.612L446.532 189.272L448.902 192.511L453.246 194.802L453.167 195.197L470.387 193.222L476.786 192.432L487.449 190.931L487.134 189.746V186.034L485.001 182.084L484.448 177.108L485.475 171.578L484.922 167.313L486.818 162.02L486.107 161.151L486.265 156.254L487.291 152.541L486.107 151.277L483.816 152.067L482.552 155.385L479.55 157.123L480.498 152.936L483.184 149.382L483.342 147.802L483.421 147.723L479.629 143.931V138.56L475.364 135.084L469.518 134.689L463.515 133.109L450.56 129.16L448.033 127.738L447.796 127.975L443.767 127.422L442.424 128.212L442.977 122.445L436.5 125.763L428.601 127.027L428.522 126.869ZM444.004 122.682L443.846 122.129L443.293 122.366L444.004 122.682ZM441.16 122.129L441.397 121.655L441.239 121.497L441.16 122.129ZM446.927 120.787L446.69 119.681L446.453 121.024L446.927 120.787Z" fill="#CFD0CD" stroke="white" stroke-width="0.789918" stroke-linejoin="round"/>
<path fill-rule="evenodd" clip-rule="evenodd" d="M595.826 215.972L584.609 218.737L581.133 203.729L580.975 203.808L580.58 221.107L578.053 224.898L575.13 227.11L574.577 226.478L571.338 230.902L571.575 234.377L569.601 234.693L566.915 238.801L567.863 241.487L566.678 244.093L563.281 245.752V245.91L564.861 251.44L569.364 256.89L571.891 258.312H573.866L574.103 258.391L574.261 258.47L575.13 260.919L580.107 262.736L582.081 260.998L584.135 260.682L588.48 257.285L593.772 255.705L595.194 253.414L595.51 248.675L597.406 245.041L599.776 234.298L604.594 235.957L606.174 231.297L608.623 228.611L612.651 220.949L612.493 216.367L619.839 219.527L620.313 216.209V216.13L618.023 212.181L613.283 211.628L610.518 213.761V215.34L608.149 215.893L604.673 218.342L602.856 218.737L599.223 223.872L597.406 215.577L595.826 215.972Z" fill="#CFD0CD" stroke="white" stroke-width="0.789918" stroke-linejoin="round"/>
<path fill-rule="evenodd" clip-rule="evenodd" d="M642.273 202.939L642.589 204.124L649.146 222.845L656.65 220.633L656.571 220.475H656.729L656.966 220.554L657.124 220.475L656.966 220.159L655.07 215.103L645.828 206.335L646.223 200.253H644.327L642.905 201.359L642.273 202.939Z" fill="#CFD0CD" stroke="white" stroke-width="0.789918" stroke-linejoin="round"/>
<path fill-rule="evenodd" clip-rule="evenodd" d="M629.555 220.395L629.95 220.711L630.108 220.79L630.266 220.711L630.424 220.79L630.977 221.106L631.135 221.343V221.896L631.292 222.212L632.319 220.317L631.214 219.685L629.871 219.764L629.555 220.395Z" fill="#CFD0CD" stroke="white" stroke-width="0.789918" stroke-linejoin="round"/>
<path fill-rule="evenodd" clip-rule="evenodd" d="M656.729 227.82L657.282 223.554L656.808 226.714L656.492 228.057L656.413 228.215L656.65 228.136L656.729 227.82ZM657.124 220.474L656.966 220.553L657.124 221.027V221.975V220.474ZM597.406 215.576L599.223 223.87L602.857 218.736L604.674 218.341L608.149 215.892L610.519 215.339V213.759L613.284 211.627L618.023 212.18L620.314 216.129L620.551 216.208L624.185 217.156L626.791 219.052L629.319 220.158L629.556 220.395L629.872 219.763L631.215 219.684L632.321 220.316L631.294 222.212V222.291L629.793 226.872L634.69 230.032L639.588 230.269L642.827 231.77L641.484 227.978L637.297 226.556L636.27 223.317L638.877 226.793L641.01 227.109L639.114 225.213L637.613 219.605L638.008 216.366L636.349 212.812L638.087 211.39L639.351 206.808L638.877 213.601L640.22 215.892L641.484 213.207L642.195 217.63L640.852 220.869L644.722 222.291L641.405 223.396L643.143 226.635L645.986 227.583L647.566 224.818L647.408 228.689L650.094 228.61L651.832 230.585H651.911L652.464 229.874L654.043 229.163L655.07 228.768L654.991 228.61L657.045 222.528V222.291L656.65 220.711V220.632L649.146 222.843L642.59 204.122L642.274 202.938L640.931 203.332L635.322 205.07L604.437 213.68L598.828 215.181L597.406 215.576Z" fill="#CFD0CD" stroke="white" stroke-width="0.789918" stroke-linejoin="round"/>
<path fill-rule="evenodd" clip-rule="evenodd" d="M660.997 202.623L660.602 201.676V202.623H660.997ZM661.787 199.701L662.024 197.331L661.55 199.385L661.787 199.701ZM658.548 175.45L650.254 173.396L648.832 173.002L647.49 172.686L644.172 180.032L645.594 181.77L645.515 187.062L647.016 187.299L650.096 195.356L649.938 195.593L646.068 201.281L646.463 205.625L655.784 208.785L655.863 212.418L657.995 209.417L658.311 205.072L660.523 203.571L659.654 200.333L661.313 196.462V188.01L660.76 185.245L657.048 185.324L657.995 181.533L658.548 175.45Z" fill="#CFD0CD" stroke="white" stroke-width="0.789918" stroke-linejoin="round"/>
<path fill-rule="evenodd" clip-rule="evenodd" d="M658.304 181.848L657.119 183.506L656.803 183.98L658.304 181.848ZM669.205 177.977L673.154 174.501V174.343L669.205 177.977ZM658.857 180.426V177.74L658.62 179.162L658.857 180.426ZM677.183 167.787L676.235 167.55L676.077 168.261L677.183 167.787ZM679.316 166.365L679.237 167.155L679.395 166.681L679.316 166.365ZM677.104 166.444L671.812 171.342L663.675 174.817L661.543 176.634L661.385 178.372L659.173 180.189L659.489 182.559L662.886 181.216L667.862 177.187L673.391 174.264L681.765 166.365L675.84 170.868L673.944 171.658L677.104 166.444ZM679.553 163.127L679.869 162.653L678.921 163.758L679.553 163.127ZM590.766 160.204L589.502 160.046L590.45 161.31L590.766 160.204ZM616.991 136.032L617.149 135.163L616.517 135.953L616.991 136.032ZM617.386 130.345L617.07 130.503L616.675 131.372L617.386 130.345ZM583.973 175.212L584.526 177.582L588.712 178.609L612.726 172.053L636.897 164.785L641.321 168.182L642.19 170.157L647.324 172.369L647.482 172.685L648.825 173.001L650.247 173.395L658.541 175.449L658.383 175.054L659.094 178.293L660.674 177.898L661.543 174.343V174.264L660.121 172.922L662.175 170.394L661.227 169.209L658.225 157.597L658.067 156.807L657.672 156.57L657.435 153.095L657.198 149.303L656.961 145.195V144.958L656.803 145.037L652.854 132.083L648.667 125.526L647.482 117.706L643.927 109.412L643.454 109.649L626.944 115.179L623.627 118.733L619.914 125.842L620.072 127.422L615.174 134.847L618.176 135.874L619.045 141.483L615.569 146.064L605.142 152.384L603.168 151.594L595.426 152.7L588.238 157.044L588.633 159.335L591.161 161.547L589.739 168.498L584.052 175.133L583.973 175.212Z" fill="#CFD0CD" stroke="white" stroke-width="0.789918" stroke-linejoin="round"/>
<path fill-rule="evenodd" clip-rule="evenodd" d="M647.328 172.368L642.193 170.157L641.325 168.182L636.901 164.785L612.729 172.052L588.716 178.609L584.529 177.582L583.976 175.212L582.634 176.239L580.501 177.74L576.63 181.689L576.156 182.084L578.368 191.8L578.763 193.538L580.738 202.069L581.133 203.728L584.608 218.737L595.825 215.972L597.405 215.577L598.827 215.182L604.435 213.681L635.321 205.071L640.93 203.333L642.272 202.938L642.904 201.358L644.326 200.252H646.222L646.459 199.542L649.54 196.066L649.856 195.513L650.093 195.355L647.012 187.298L645.511 187.061L645.59 181.768L644.168 180.031L647.486 172.684L647.328 172.368Z" fill="#CFD0CD" stroke="white" stroke-width="0.789918" stroke-linejoin="round"/>
<path fill-rule="evenodd" clip-rule="evenodd" d="M685.404 130.266H685.325L685.483 130.345L685.404 130.266ZM691.249 113.441L690.617 112.493V112.967L691.249 113.441ZM690.143 112.572V111.782L690.064 111.308L690.143 112.572ZM692.987 109.254L692.829 109.175L692.908 109.412L692.987 109.254ZM700.886 105.304L700.728 104.12L700.412 104.673L700.886 105.304ZM698.911 105.778L698.99 104.909L698.042 105.067L698.911 105.778ZM701.834 103.172H701.518V103.33L701.834 103.172ZM697.884 104.357L697.174 104.199L697.095 104.909L697.884 104.357ZM701.913 101.908L702.624 102.461L702.387 101.829L701.913 101.908ZM699.78 101.987L699.069 103.33L700.017 102.856L699.78 101.987ZM696.384 102.066L696.068 102.54L696.305 103.251L696.384 102.066ZM701.044 99.459L700.965 98.8271L700.728 99.2221L701.044 99.459ZM700.649 99.775L699.938 99.1431V99.696L700.649 99.775ZM696.226 101.592L696.068 100.723L695.752 101.434L696.226 101.592ZM703.73 98.8271L702.545 100.565L702.466 99.3011L703.73 98.8271ZM709.496 93.5346L708.943 92.7447L708.627 92.9027L709.496 93.5346ZM711.629 89.98L711.155 89.743L711.076 89.98H711.629ZM712.656 83.8187H711.945L712.735 84.0556L712.656 83.8187ZM713.841 84.6086L713.604 83.1867L712.972 83.1077L713.841 84.6086ZM712.577 83.3447L712.419 81.8439L711.866 82.8708L712.577 83.3447ZM666.762 95.7464L678.216 122.604L678.373 123.157L683.35 129.239V129.16L684.14 128.923L684.298 124.42L685.562 122.841L686.352 118.654L685.641 117.943L686.984 113.836L691.565 111.703L694.567 108.069L695.673 101.75L700.491 101.434L699.859 98.1951L705.863 95.9044L706.258 92.3497L707.679 92.6657L711.629 89.427L713.367 85.2405L709.338 81.2119L705.073 80.343L703.493 77.1043V75.2085L700.886 75.9984L697.963 74.9715V71.7329L690.064 54.6706L684.298 51.6689L677.9 57.0404L676.162 56.7244L674.661 53.9597L672.607 54.7496L669.684 69.2841L670.711 74.0236L671.58 83.6606L669.289 91.0859L670.869 92.2707L668.973 95.9044L666.92 95.5884L666.762 95.7464Z" fill="#CFD0CD" stroke="white" stroke-width="0.789918" stroke-linejoin="round"/>
<path fill-rule="evenodd" clip-rule="evenodd" d="M500.798 146.38L500.403 145.749L500.324 146.538L500.798 146.38ZM502.062 144.959L501.114 143.695L500.956 144.248L502.062 144.959ZM502.852 139.271L502.062 138.56V138.718L502.852 139.271ZM500.877 201.122L510.672 199.542L513.436 198.989L525.522 196.856L525.759 197.883L526.549 197.646L531.763 196.54L536.739 195.355L541.795 194.092L541.716 193.855L544.322 188.72L544.085 184.455L547.008 177.108L549.299 178.451L550.168 176.792L549.931 170.473L547.798 166.523L544.638 158.15L541.873 155.07L540.452 154.675L535.317 158.229L535.87 158.94L533.184 163.996L530.578 163.522L529.788 158.229L530.894 157.834L533.184 152.542L533.421 143.221L529.867 135.322L521.968 133.979L521.178 132.794L513.831 130.661L510.514 134.769L510.83 138.323L508.302 141.483L508.855 146.38L506.406 148.118V141.957L504.194 146.617L501.588 150.725L499.85 152.068L500.719 156.412L499.613 160.915L500.245 166.523L499.455 169.288L505.142 180.189L505.853 184.376L505.142 192.117L501.351 200.806L500.877 201.122ZM517.781 129.95L515.727 130.108L516.991 131.056L517.781 129.95ZM505.774 132.004H505.142L505.853 132.32L505.774 132.004ZM519.598 121.972L518.808 120.708L518.492 120.787L519.598 121.972ZM448.031 127.738L450.559 129.16L463.514 133.11L469.517 134.69L475.362 135.085L479.628 138.56V143.932L483.42 147.723V147.644L486.5 138.718L490.213 136.111L493.057 132.952L493.531 135.796L496.453 131.293L503.484 128.607L504.036 127.501L511.146 128.37L513.91 129.792L515.253 126.316L516.517 127.106L522.047 126.237L520.704 124.026L518.255 122.604L518.729 117.469L513.91 120.155L509.487 119.602L508.065 116.206L508.539 115.1L502.536 117.943L498.665 118.18L491.714 122.446L490.924 124.026L486.658 122.999L483.973 124.184L478.601 119.523L466.673 115.89L466.436 114.468L458.774 121.814L454.43 122.92L448.268 127.58L448.031 127.738ZM475.994 109.807L466.752 114.389L469.833 117.39L471.018 114.389L474.178 110.518L475.994 109.807ZM465.646 98.9854L459.327 103.33L459.011 105.463L463.988 101.829L465.646 98.9854Z" fill="#CFD0CD" stroke="white" stroke-width="0.789918" stroke-linejoin="round"/>
</g>
<defs>
<clipPath id="clip0_15914_15026">
<rect width="679" height="424" fill="white" transform="translate(36 51)"/>
</clipPath>
</defs>
</svg>
